# xmcd
#
# Track frame offsets:
#	150
#	23075
#	42306
#	56482
#	78443
#	98542
#	112072
#	130229
#	149284
#	159660
#	171955
#	180364
#	197051
#	211546
#	219398
#	227159
#
# Disc length: 3207 seconds
#
# Revision: 1
# Processed by: cddbd v1.5.2PL0 Copyright (c) Steve Scherf et al.
# Submitted via: audiograbber 1.83.01
#
DISCID=d40c8510
DTITLE=Johnny Cash - Ride This Train
DYEAR=2011
DGENRE=Country
TTITLE0=Loading Coal
TTITLE1=Slow Rider
TTITLE2=Lumberjack
TTITLE3=Dorraine of Ponchartrain
TTITLE4=Going To Memphis
TTITLE5=When Papa Played The Dobro
TTITLE6=Boss Jack
TTITLE7=Old Doc Brown
TTITLE8=Loading Coal
TTITLE9=Slow Rider
TTITLE10=Lumberjack
TTITLE11=Dorraine of Ponchartrain
TTITLE12=Going To Memphis
TTITLE13=When Papa Played The Dobro
TTITLE14=Boss Jack
TTITLE15=Old Doc Brown
EXTD=
EXTT0=
EXTT1=
EXTT2=
EXTT3=
EXTT4=
EXTT5=
EXTT6=
EXTT7=
EXTT8=
EXTT9=
EXTT10=
EXTT11=
EXTT12=
EXTT13=
EXTT14=
EXTT15=
PLAYORDER=
